<?xml version="1.0" encoding="UTF-8"?><svg id="Vrstva_1" xmlns="http://www.w3.org/2000/svg" viewBox="0 0 4000 4000"><defs><style>.cls-1{fill:red;stroke-width:0px;}</style></defs><path class="cls-1" d="M1798.79,979.44c-107.07-98.41-251.48-147.65-433.21-147.65s-318.58,48.14-423.47,144.41c-104.98,96.28-157.38,245-157.38,446.18v1151.98c0,201.2,52.4,350.48,157.38,447.82,104.89,97.35,246.04,146.02,423.47,146.02s326.14-49.21,433.21-147.65c107.09-98.39,160.63-247.11,160.63-446.19v-1151.98c0-196.8-53.54-344.49-160.63-442.94ZM1505.12,2606.81c0,62.81-12.98,106.57-38.93,131.43-25.97,24.9-57.37,37.32-94.11,37.32-34.64,0-65.48-12.42-92.49-37.32-27.1-24.85-40.56-68.62-40.56-131.43v-410.07h266.09v410.07ZM1239.02,1803.28v-410.09c0-62.72,13.46-105.99,40.56-129.81,27.01-23.77,57.85-35.69,92.49-35.69,36.74,0,68.14,11.92,94.11,35.69,25.95,23.82,38.93,67.09,38.93,129.81v410.09h-266.09Z"/><polygon class="cls-1" points="3215.25 864.24 3215.25 3135.76 2757.7 3135.76 2757.7 2196.74 2524.06 2196.74 2524.06 3135.76 2069.75 3135.76 2069.75 864.24 2524.06 864.24 2524.06 1803.28 2757.7 1803.28 2757.7 864.24 3215.25 864.24"/><rect class="cls-1" x="447" y="1803.28" width="247.93" height="393.46"/><rect class="cls-1" x="3305.27" y="1803.28" width="247.73" height="393.46"/></svg>